<?xml version="1.0" encoding="UTF-8"?>
<svg id="Layer_1" data-name="Layer 1" xmlns="http://www.w3.org/2000/svg" viewBox="0 0 637.35 226.11">
  <defs>
    <style>
      .cls-1 {
        stroke: #e6ab62;
        stroke-width: 1.89px;
      }

      .cls-1, .cls-2, .cls-3, .cls-4, .cls-5, .cls-6, .cls-7, .cls-8, .cls-9, .cls-10, .cls-11, .cls-12, .cls-13, .cls-14, .cls-15, .cls-16, .cls-17, .cls-18 {
        stroke-miterlimit: 10;
      }

      .cls-1, .cls-2, .cls-3, .cls-4, .cls-5, .cls-6, .cls-7, .cls-8, .cls-9, .cls-11, .cls-12, .cls-13, .cls-14, .cls-15, .cls-16, .cls-17, .cls-18 {
        fill: none;
      }

      .cls-2 {
        stroke: #1b1464;
        stroke-width: .51px;
      }

      .cls-3 {
        stroke: #956f63;
        stroke-width: 1.34px;
      }

      .cls-4 {
        stroke: #6c5063;
        stroke-width: 1.06px;
      }

      .cls-5 {
        stroke: #d9a162;
        stroke-width: 1.8px;
      }

      .cls-6 {
        stroke: #513c63;
        stroke-width: .88px;
      }

      .cls-7 {
        stroke: #362864;
        stroke-width: .69px;
      }

      .cls-19 {
        fill: #f4b562;
      }

      .cls-19, .cls-20, .cls-21 {
        stroke-width: 0px;
      }

      .cls-8 {
        stroke: #cb9762;
        stroke-width: 1.7px;
      }

      .cls-9 {
        stroke: #291e64;
        stroke-width: .6px;
      }

      .cls-20 {
        fill: #313066;
      }

      .cls-10 {
        fill: #fbb03b;
        stroke-width: 11.03px;
      }

      .cls-10, .cls-12 {
        stroke: #f4b562;
      }

      .cls-11 {
        stroke: #5f4663;
        stroke-width: .97px;
      }

      .cls-12 {
        stroke-width: 1.98px;
      }

      .cls-13 {
        stroke: #443264;
        stroke-width: .79px;
      }

      .cls-14 {
        stroke: #be8d62;
        stroke-width: 1.61px;
      }

      .cls-15 {
        stroke: #7a5a63;
        stroke-width: 1.15px;
      }

      .cls-16 {
        stroke: #886563;
        stroke-width: 1.25px;
      }

      .cls-17 {
        stroke: #b08363;
        stroke-width: 1.52px;
      }

      .cls-21 {
        fill: #fff;
      }

      .cls-18 {
        stroke: #a37963;
        stroke-width: 1.43px;
      }
    </style>
  </defs>
  <rect class="cls-20" width="637.35" height="226.11"/>
  <g>
    <g>
      <g>
        <path class="cls-21" d="M195.26,51.06h-10.2v-10.37h31.71v10.37h-10.28v47.39h-11.23v-47.39Z"/>
        <path class="cls-21" d="M228.94,85.25l-2.57,13.2h-10.88l12.51-57.76h13.45l11.23,57.76h-10.88l-2.48-13.2h-10.37ZM238.28,76.51l-1.89-12.08c-.6-3.51-1.37-9.25-1.89-13.11h-.26c-.6,3.86-1.46,9.85-2.06,13.2l-2.14,12h8.23Z"/>
        <path class="cls-21" d="M257.73,86.96c2.31,1.29,6.26,2.23,9.51,2.23,5.31,0,7.88-2.74,7.88-6.51,0-4.2-2.57-6.26-7.46-9.43-7.88-4.8-10.88-10.88-10.88-16.11,0-9.25,6.17-16.97,18.25-16.97,3.77,0,7.37,1.03,9.08,2.06l-1.8,9.68c-1.63-1.03-4.11-1.97-7.37-1.97-4.8,0-7.11,2.91-7.11,6,0,3.43,1.71,5.23,7.97,9,7.63,4.63,10.45,10.46,10.45,16.54,0,10.54-7.8,17.48-19.11,17.48-4.63,0-9.17-1.2-11.05-2.31l1.63-9.68Z"/>
        <path class="cls-21" d="M320.46,97.59c-1.63.77-4.8,1.37-8.74,1.37-14.74,0-21.77-12.17-21.77-28.54,0-21.77,12.08-30.25,23.31-30.25,3.94,0,6.68.77,7.8,1.54l-1.89,9.43c-1.29-.6-2.74-1.11-5.23-1.11-6.34,0-12.08,5.48-12.08,19.79s5.23,19.2,12.08,19.2c1.88,0,4.03-.43,5.4-.86l1.11,9.43Z"/>
        <path class="cls-21" d="M337.85,40.69v23.14h11.74v-23.14h11.23v57.76h-11.23v-24.17h-11.74v24.17h-11.23v-57.76h11.23Z"/>
        <path class="cls-21" d="M370.75,98.45v-57.76h10.28l8.91,22.62c1.71,4.46,4.54,11.91,6.17,16.88h.17c-.34-6.08-1.11-16.11-1.11-26.74v-12.77h9.85v57.76h-10.28l-8.83-21.94c-1.89-4.88-4.54-12.17-5.83-17.4h-.17c.26,5.83.69,14.74.69,26.31v13.03h-9.85Z"/>
        <path class="cls-21" d="M439.39,73.08h-13.2v15.6h14.91v9.77h-26.14v-57.76h25.11v9.77h-13.88v13.28h13.2v9.34Z"/>
        <path class="cls-21" d="M448.73,41.54c3.51-.69,7.97-1.11,12.25-1.11,6.17,0,11.65.86,15.42,4.28,3.51,3.17,4.54,7.03,4.54,12,0,6.17-3,11.74-8.91,14.48v.17c3.94,1.54,5.91,5.23,7.03,11.4,1.11,6.43,2.66,13.54,3.69,15.68h-11.74c-.69-1.63-1.97-7.46-2.83-13.8-1.03-7.2-2.83-9.25-6.6-9.25h-1.63v23.05h-11.23v-56.9ZM459.96,66.74h1.97c4.88,0,7.71-3.94,7.71-9s-1.97-8.4-7.03-8.57c-.94,0-2.06.09-2.66.34v17.22Z"/>
      </g>
      <g>
        <path class="cls-21" d="M237.11,158.73c-.34-7.23-.9-17.05-.68-25.18h-.34c-1.35,8.13-3.39,17.5-4.85,23.37l-6.55,27.21h-10.5l-6.32-26.76c-1.47-6.1-3.5-15.58-4.63-23.83h-.34c-.23,8.24-.68,17.84-1.13,25.41l-1.24,26.42h-12.76l5.53-76.1h15.58l6.1,27.55c2.14,9.6,4.06,18.07,5.42,26.65h.23c1.13-8.47,2.82-17.05,4.86-26.65l5.98-27.55h15.58l4.63,76.1h-13.21l-1.36-26.65Z"/>
        <path class="cls-21" d="M278.54,167.99l-3.39,17.39h-14.34l16.49-76.1h17.73l14.79,76.1h-14.34l-3.27-17.39h-13.66ZM290.85,156.47l-2.48-15.92c-.79-4.63-1.81-12.19-2.48-17.28h-.34c-.79,5.08-1.92,12.98-2.71,17.39l-2.82,15.81h10.84Z"/>
        <path class="cls-21" d="M322.12,185.37v-76.1h13.55l11.74,29.81c2.26,5.87,5.98,15.7,8.13,22.24h.23c-.45-8.02-1.47-21.23-1.47-35.23v-16.82h12.99v76.1h-13.55l-11.63-28.91c-2.48-6.44-5.98-16.03-7.68-22.92h-.23c.34,7.68.9,19.42.9,34.67v17.16h-12.99Z"/>
        <path class="cls-21" d="M384.34,110.4c3.73-.9,9.15-1.47,15.02-1.47,9.6,0,16.26,2.26,21.12,6.77,6.55,5.87,9.94,15.92,9.94,30.71s-3.95,26.31-10.61,32.18c-5.08,4.97-12.65,7.34-23.26,7.34-4.63,0-9.26-.45-12.2-.79v-74.75ZM399.13,173.63c.68.23,1.81.23,2.6.23,7.11,0,13.32-7,13.32-28,0-15.58-4.06-25.07-12.99-25.07-1.02,0-2.03,0-2.94.34v52.51Z"/>
        <path class="cls-21" d="M443.73,109.27h14.79v63.57h19.53v12.53h-34.33v-76.1Z"/>
      </g>
    </g>
    <g>
      <path class="cls-19" d="M517.29,185.94v-15.41h66.24v-20.35h13.06v35.76h-79.29Z"/>
      <path class="cls-19" d="M578.47,127.7l18.12,3.53v14.94l-79.29-17.18v-18.47l79.29-15.41v14.94l-18.12,3.41v14.24ZM566.47,114.88l-16.59,2.59c-4.82.82-12.71,1.88-18,2.59v.35c5.29.82,13.53,2,18.12,2.82l16.47,2.94v-11.29Z"/>
      <path class="cls-19" d="M518.47,86.41c-1.06-4.71-1.53-10.82-1.53-17.53,0-7.41.94-14.59,5.65-20.12,3.53-4.24,8.82-6,14.35-6,7.06,0,13.88,3.65,17.29,11.53h.47c2.59-9.18,10.24-14.12,18.94-14.12,6.59,0,11.65,2.12,15.53,5.88,5.18,4.71,8,12.71,8,26,0,5.88-.35,10.82-.82,14.35h-77.88ZM549.88,71v-3.29c0-5.53-4.71-9.76-11.18-9.76-5.76,0-10.24,2.71-10.24,9.06,0,1.65.12,3.06.47,4h20.94ZM585.06,71c.24-.94.24-2,.24-3.41,0-6.24-3.76-11.41-11.88-11.41s-12,5.41-12.12,11.53v3.29h23.76Z"/>
    </g>
    <g>
      <path class="cls-2" d="M119.57,137.63s7.91,6.42,11.43,1.91c2.61-3.34.17-5.9-.66-6.37s-2.52-.28-2.23-1.8,4.08-.46,4.08-.46c0,0,10.2,5.32,12.4-4.92,1.97-9.2-7.98-8.51-10.26-6.73-1.81,1.41-3.64-1.14-3.62-1.98s.14-3.06,2.83-3.24c2.68-.17,11.86-.67,7.47-17.03-4.38-16.36-16.36-6.01-16.54,1.57s-5.44,5.83-6.57,5.21c-.75-.41-1.88-1.32-3.23.19-1.86,2.07-.61,3.97-.04,5.02s1.88,2.76,1.14,4.63c-.74,1.87-4.42,2.31-4.42,2.31,0,0-4.07,0-3.87,3.83s2.52,3.68,2.88,3.84,2.26.69,2.31,3.06-3.27,3.3-3.27,3.3c0,0-5,.74-4.02,5.82.98,5.08,8.47,1.51,8.47,1.51,0,0,2.82-1.59,5.71.33Z"/>
      <path class="cls-9" d="M111.15,134.31c.2-.03,3.13-1.72,5.96.29.12.22,6.74,6.5,10.03,2.28,2.44-3.13-2.24-5.11-2.29-4.06-.05.9.05-.06.53-1.95.45-1.79,4.61-.68,4.7-.57s9.91,5.39,11.48-3.92c1.41-8.31-9.8-6.6-9.02-3.44.72,2.93.22-2.05-.59-3.78s.45-4.16,3.24-4.36c2.69-.19,11.61-.66,7.57-16.32-4.01-15.78-15.68-6.18-16.07.85-.39,7.03-5.79,5.36-6.9,4.44-.8-.67-1.23-1.98-2.5-.57-1.74,1.94.17,3.29.22,3.83s.89,2.4.11,4.17c-.78,1.77-4.63,2.32-4.91,2.03s-3.6-.75-3.41,2.84,3.18,2.83,2.76,2.47.42,1.35.47,3.58-3.39,3.59-4.13,3.66c0,0-6.88.74-6.05,6.43s8.58,2.16,8.79,2.13Z"/>
      <path class="cls-7" d="M108.45,131.31c.41-.06,3.44-1.86,6.21.26.24.43,5.56,6.59,8.64,2.65,2.28-2.92-4.71-4.33-3.92-1.76.69,2.25,2.62.16,3.28-2.09.6-2.05,5.14-.89,5.33-.68s9.62,5.45,10.57-2.92c.84-7.44-11.31-4.63-7.79-.15s4.09-2.97,2.44-5.59.76-5.26,3.66-5.49c2.71-.21,11.3-.65,7.66-15.62s-15-6.36-15.6.13c-.6,6.49-6.12,4.87-7.22,3.66-.85-.94-.57-2.65-1.76-1.33-1.63,1.81.94,2.62.48,2.65s-.1,2.04-.92,3.71-4.84,2.33-5.4,1.75-3.14-1.5-2.96,1.85c.18,3.35,3.84,1.99,2.64,1.09s-1.42,2.02-1.38,4.1-3.51,3.87-4.99,4.01c0,0-8.75.75-8.08,7.03.63,5.82,8.7,2.8,9.1,2.74Z"/>
      <path class="cls-13" d="M105.74,128.32c.61-.09,3.75-1.99,6.46.22.36.65,4.38,6.67,7.24,3.01,2.12-2.71-7.17-3.54-5.56.55,1.42,3.61,5.19.38,6.04-2.23.75-2.32,5.67-1.11,5.95-.79s9.33,5.5,9.65-1.92c.28-6.56-12.83-2.75-6.55,3.14s7.95-3.88,5.47-7.4,1.07-6.36,4.07-6.62c2.72-.23,11.02-.63,7.76-14.92s-14.32-6.53-15.13-.59-6.45,4.37-7.54,2.89c-.9-1.22.08-3.31-1.02-2.09-1.51,1.68,1.71,1.94.75,1.46s-1.09,1.69-1.95,3.26c-.85,1.57-5.04,2.33-5.89,1.48s-2.67-2.25-2.5.87,4.5,1.14,2.52-.29-3.26,2.68-3.22,4.61-3.63,4.16-5.86,4.37c0,0-10.62.75-10.11,7.64.46,6.19,8.81,3.45,9.42,3.36Z"/>
      <path class="cls-6" d="M103.04,125.32c.81-.12,4.5-2.54,6.72.19.62.77,3.2,6.76,5.84,3.38,1.96-2.51-9.63-2.75-7.19,2.85,2.17,4.97,7.76.6,8.79-2.37.9-2.59,6.21-1.32,6.57-.9s9.05,5.55,8.74-.92c-.28-5.69-14.37-.9-5.32,6.43s11.81-4.8,8.5-9.21,1.37-7.46,4.48-7.74c2.74-.25,10.75-.63,7.85-14.22s-13.64-6.71-14.66-1.3-6.77,3.86-7.86,2.12c-.94-1.5.73-3.98-.29-2.85-1.4,1.55,2.48,1.26,1.01.27-1.47-1-2.09,1.33-2.98,2.8-.89,1.47-5.25,2.34-6.38,1.2s-2.2-2.99-2.05-.12,5.16.29,2.41-1.66-5.11,3.34-5.06,5.13-3.76,4.44-6.72,4.72c0,0-12.48.75-12.13,8.24.3,6.55,8.92,4.09,9.73,3.97Z"/>
      <path class="cls-11" d="M100.33,122.33c1.02-.15,4.78-2.63,6.97.15.77.98,2.03,6.84,4.44,3.75,1.79-2.3-12.09-1.96-8.82,5.16,2.91,6.34,10.33.82,11.55-2.52,1.04-2.86,6.74-1.54,7.2-1.01s8.77,5.59,7.82.08c-.83-4.83-15.91.96-4.08,9.72,11.92,8.83,15.67-5.71,11.53-11.02-4.15-5.31,1.68-8.56,4.9-8.87,2.75-.27,10.47-.62,7.94-13.52s-12.96-6.88-14.19-2.02c-1.23,4.86-7.08,3.35-8.18,1.35-.98-1.78,1.38-4.64.45-3.61-1.28,1.42,3.25.59,1.27-.92s-3.08.97-4,2.35-5.46,2.35-6.87.93-1.74-3.74-1.6-1.11,5.82-.55,2.29-3.04-6.95,4.01-6.91,5.64-3.88,4.73-7.58,5.08c0,0-14.33.75-14.16,8.85.15,6.91,9.03,4.74,10.05,4.59Z"/>
      <path class="cls-4" d="M97.62,119.33c1.22-.18,5.07-2.71,7.22.12.9,1.18.85,6.93,3.05,4.11,1.63-2.09-14.55-1.17-10.46,7.46,3.65,7.7,12.9,1.04,14.31-2.66,1.19-3.12,7.27-1.75,7.82-1.13s8.49,5.61,6.91,1.08c-1.39-3.99-17.46,2.81-2.85,13.02s19.54-6.63,14.56-12.83,1.99-9.65,5.31-10c2.76-.29,10.2-.61,8.04-12.82-2.29-12.89-12.28-7.05-13.72-2.74s-7.4,2.84-8.51.58c-1.01-2.06,2.03-5.31,1.18-4.37-1.16,1.29,4.02-.09,1.54-2.11s-4.07.61-5.03,1.89-5.67,2.36-7.36.65c-1.69-1.71-1.27-4.49-1.14-2.1s6.48-1.4,2.17-4.41-8.79,4.67-8.75,6.16-4,5.01-8.45,5.43c0,0-16.18.74-16.19,9.45,0,7.28,9.14,5.39,10.36,5.2Z"/>
      <path class="cls-15" d="M94.92,116.34c1.42-.21,5.34-2.8,7.47.09,1.03,1.4-.33,7.01,1.65,4.48,1.47-1.88-17.02-.37-12.09,9.77,4.38,9.07,15.46,1.26,17.06-2.8,1.34-3.39,7.8-1.97,8.44-1.24s8.19,5.61,5.99,2.09c-1.97-3.16-19.01,4.65-1.61,16.31,17.48,11.71,23.4-7.54,17.58-14.64-5.81-7.09,2.29-10.75,5.73-11.13,2.78-.31,9.94-.6,8.13-12.12-1.93-12.32-11.6-7.23-13.26-3.46s-7.71,2.33-8.83-.2c-1.04-2.35,2.68-5.97,1.92-5.13-1.05,1.16,4.8-.77,1.8-3.3s-5.06.25-6.06,1.43-5.88,2.37-7.85.37-.8-5.24-.69-3.08,7.14-2.25,2.05-5.79-10.63,5.33-10.6,6.67-4.12,5.3-9.31,5.79c0,0-18.03.74-18.22,10.06-.15,7.64,9.26,6.03,10.68,5.82Z"/>
      <path class="cls-16" d="M92.21,113.34c1.63-.24,5.62-2.89,7.72.05,1.15,1.62-1.51,7.1.25,4.85,1.3-1.67-19.48.42-13.72,12.07,5.13,10.43,18.03,1.48,19.82-2.95,1.48-3.66,8.33-2.18,9.07-1.35s7.85,5.61,5.08,3.09c-2.58-2.34-20.56,6.5-.38,19.6,20.27,13.15,27.26-8.46,20.61-16.44-6.65-7.99,2.6-11.84,6.14-12.25,2.79-.32,9.67-.6,8.23-11.42-1.57-11.75-10.93-7.4-12.79-4.17s-8.02,1.82-9.15-.97c-1.07-2.63,3.33-6.64,2.65-5.88-.93,1.03,5.57-1.44,2.06-4.49s-6.05-.11-7.09.98-6.09,2.38-8.34.1c-2.25-2.28-.34-5.99-.23-4.07s7.8-3.09,1.93-7.16-12.47,6-12.44,7.19-4.25,5.59-10.17,6.14c0,0-19.87.74-20.25,10.66-.3,8.01,9.37,6.68,10.99,6.44Z"/>
      <path class="cls-3" d="M89.51,110.35c1.83-.27,5.9-2.99,7.97.02,1.27,1.84-2.68,7.18-1.14,5.21,1.14-1.46-21.94,1.21-15.36,14.38,5.87,11.8,20.59,1.7,22.58-3.09,1.63-3.93,8.86-2.4,9.69-1.46s7.48,5.63,4.16,4.09-22.11,8.35.86,22.89c23.05,14.59,31.12-9.37,23.64-18.25s2.91-12.94,6.56-13.38c2.81-.34,9.41-.6,8.32-10.72-1.21-11.18-10.25-7.57-12.32-4.89s-8.32,1.31-9.47-1.74,3.98-7.3,3.39-6.64c-.81.9,6.34-2.12,2.33-5.68s-7.04-.46-8.12.52-6.3,2.39-8.83-.18.13-6.73.22-5.06,8.46-3.94,1.81-8.54-14.31,6.66-14.28,7.7-4.37,5.87-11.03,6.5c0,0-21.71.74-22.27,11.27-.45,8.37,9.48,7.33,11.31,7.05Z"/>
      <path class="cls-18" d="M86.8,107.35c2.03-.3,6.17-3.08,8.22-.02,1.38,2.06-3.86,7.27-2.54,5.58.98-1.25-24.39,2-16.99,16.68,6.61,13.16,23.16,1.92,25.33-3.23,1.77-4.2,9.39-2.61,10.31-1.57s7.09,5.7,3.24,5.09-23.66,10.2,2.1,26.18,34.99-10.29,26.67-20.06c-8.31-9.77,3.21-14.03,6.97-14.51,2.82-.36,9.16-.6,8.41-10.01-.84-10.61-9.57-7.75-11.85-5.61s-8.63.81-9.79-2.51,4.63-7.97,4.12-7.4c-.7.78,7.11-2.79,2.59-6.87s-8.03-.82-9.15.06-6.51,2.4-9.32-.45c-2.81-2.85.6-7.48.67-6.05s9.13-4.79,1.7-9.92c-7.43-5.13-16.15,7.33-16.13,8.22s-4.49,6.16-11.9,6.85c0,0-23.55.74-24.3,11.87-.59,8.74,9.59,7.97,11.63,7.67Z"/>
      <path class="cls-17" d="M84.1,104.35c2.24-.34,6.45-3.18,8.47-.05,1.48,2.29-5.04,7.36-3.94,5.95.81-1.04-26.85,2.79-18.62,18.99,7.36,14.52,25.72,2.14,28.09-3.37,1.92-4.47,9.92-2.82,10.93-1.68s6.73,5.8,2.33,6.09-25.22,12.05,3.33,29.47,38.85-11.2,29.7-21.87,3.52-15.13,7.39-15.64c2.83-.37,8.91-.6,8.51-9.31-.46-10.04-8.89-7.92-11.38-6.33s-8.94.3-10.12-3.28,5.28-8.63,4.86-8.16c-.58.65,7.88-3.47,2.85-8.06-5.03-4.59-9.02-1.18-10.18-.39s-6.72,2.41-9.81-.73,1.06-8.23,1.13-7.03,9.79-5.63,1.58-11.29-17.99,7.99-17.97,8.73-4.61,6.44-12.76,7.2c0,0-25.39.75-26.33,12.48-.73,9.1,9.7,8.62,11.94,8.28Z"/>
      <path class="cls-14" d="M81.39,101.36c2.44-.37,6.72-3.28,8.72-.09,1.58,2.52-6.22,7.44-5.34,6.31.65-.84-29.31,3.58-20.25,21.29,8.1,15.88,28.28,2.35,30.85-3.52,2.06-4.74,10.46-3.04,11.56-1.79s6.4,5.9,1.41,7.09-26.74,13.83,4.57,32.76c31.42,18.84,42.71-12.12,32.73-23.68-9.98-11.56,3.83-16.22,7.8-16.76,2.85-.39,8.67-.6,8.6-8.61-.08-9.48-8.21-8.1-10.91-7.04s-9.24-.21-10.44-4.06,5.93-9.3,5.59-8.92c-.47.52,8.66-4.15,3.12-9.25-5.54-5.1-10.02-1.54-11.21-.85s-6.93,2.42-10.3-1.01c-3.37-3.42,1.53-8.98,1.58-8.02s10.45-6.48,1.46-12.67-19.83,8.65-19.82,9.25-4.74,6.73-13.62,7.56c0,0-27.22.75-28.36,13.08-.87,9.47,9.82,9.26,12.26,8.9Z"/>
      <path class="cls-8" d="M78.68,98.36c2.64-.4,6.99-3.38,8.97-.12,1.68,2.75-7.39,7.53-6.73,6.68.49-.63-31.76,4.37-21.89,23.6,8.85,17.25,30.84,2.57,33.6-3.66,2.2-5.01,10.99-3.25,12.18-1.9s6.09,5.99.5,8.09-28.3,15.7,5.8,36.05c34.19,20.29,46.57-13.03,35.76-25.49-10.81-12.45,4.14-17.31,8.22-17.89,2.86-.4,8.44-.6,8.7-7.91.31-8.91-7.53-8.27-10.45-7.76-2.92.51-9.55-.72-10.76-4.83s6.58-9.96,6.33-9.68c-.35.39,9.43-4.82,3.38-10.44-6.05-5.61-11.01-1.9-12.23-1.31s-7.14,2.43-10.79-1.28c-3.65-3.71,2-9.73,2.04-9.01s11.11-7.33,1.34-14.04c-9.77-6.72-21.67,9.32-21.66,9.76s-4.86,7.01-14.49,7.91c0,0-29.05.75-30.38,13.69-1.01,9.83,9.93,9.91,12.57,9.51Z"/>
      <path class="cls-5" d="M75.98,95.37c2.85-.43,7.26-3.48,9.23-.16,1.77,2.99-8.57,7.61-8.13,7.05.33-.42-34.22,5.16-23.52,25.9,9.59,18.61,33.41,2.79,36.36-3.8,2.35-5.28,11.52-3.47,12.8-2.01s5.78,6.08-.42,9.09c-6.27,3.05-29.86,17.56,7.04,39.35,36.96,21.74,50.44-13.95,38.79-27.29-11.65-13.35,4.45-18.4,8.63-19.02,2.88-.41,8.22-.6,8.79-7.21.72-8.34-6.85-8.44-9.98-8.48-3.13-.03-9.85-1.23-11.08-5.6s7.23-10.63,7.06-10.44c-.23.26,10.2-5.5,3.64-11.63-6.56-6.13-12-2.25-13.26-1.76s-7.35,2.44-11.28-1.56c-3.93-3.99,2.46-10.47,2.49-10s11.77-8.18,1.22-15.42c-10.55-7.24-23.51,9.98-23.5,10.28s-4.98,7.3-15.35,8.27c0,0-30.88.75-32.41,14.3-1.15,10.2,10.04,10.56,12.89,10.13Z"/>
      <path class="cls-1" d="M73.27,92.37c3.05-.46,7.53-3.59,9.48-.19s-9.75,7.7-9.53,7.41c.16-.21-36.68,5.95-25.15,28.21,10.34,19.97,35.98,3.01,39.11-3.94,2.5-5.55,12.05-3.68,13.43-2.12s5.47,6.16-1.33,10.09-31.43,19.42,8.27,42.64c39.72,23.19,54.3-14.86,41.82-29.1-12.48-14.24,4.75-19.5,9.05-20.14,2.89-.43,8.01-.59,8.89-6.51,1.15-7.77-6.17-8.62-9.51-9.2s-10.15-1.74-11.4-6.37,7.88-11.29,7.8-11.2c-.12.13,10.97-6.18,3.9-12.82-7.07-6.64-12.99-2.61-14.29-2.22s-7.56,2.44-11.77-1.83c-4.21-4.28,2.93-11.22,2.94-10.98s12.43-9.02,1.1-16.8c-11.33-7.77-25.35,10.65-25.35,10.79s-5.1,7.58-16.21,8.62c0,0-32.7.76-34.44,14.9-1.28,10.57,10.15,11.2,13.2,10.75Z"/>
      <path class="cls-12" d="M93.52,62.51s-34.54.76-36.47,15.51c-1.43,10.94,10.26,11.85,13.52,11.36s7.8-3.69,9.73-.23-10.93,7.78-10.93,7.78c0,0-39.14,6.74-26.79,30.51,11.08,21.33,38.54,3.23,41.87-4.09,2.65-5.82,12.58-3.9,14.05-2.23s5.17,6.24-2.25,11.09c-7.42,4.85-32.99,21.28,9.51,45.93,42.49,24.65,58.16-15.78,44.85-30.91s5.06-20.59,9.46-21.27c2.91-.45,7.82-.58,8.98-5.81,1.6-7.18-5.49-8.79-9.04-9.91s-10.46-2.24-11.73-7.14c-1.27-4.9,8.53-11.96,8.53-11.96,0,0,11.74-6.85,4.17-14.01-7.57-7.15-13.98-2.97-15.32-2.67s-7.77,2.45-12.26-2.11c-4.49-4.56,3.4-11.97,3.4-11.97,0,0,13.09-9.87.98-18.17s-27.19,11.31-27.19,11.31c0,0-5.23,7.87-17.08,8.98Z"/>
    </g>
    <line class="cls-10" x1="499.85" y1="40.17" x2="499.85" y2="185.94"/>
  </g>
</svg>